<svg width="418" height="214" viewBox="0 0 418 214" fill="none" xmlns="http://www.w3.org/2000/svg">
<g clip-path="url(#clip0_29_77)">
<path d="M226.828 113.205V113.669C226.827 117.937 225.033 122.03 221.841 125.048C218.648 128.065 214.319 129.76 209.805 129.759H17.6655C13.1524 129.759 8.8242 128.064 5.63293 125.046C2.44165 122.029 0.648623 117.937 0.648193 113.669V113.205H226.828Z" fill="#F2F2F2"/>
<path d="M40.8343 36.609C26.9492 39.8516 14.4845 29.7512 12.3081 20.381L13.2748 20.2176C24.978 17.7716 38.0422 25.6814 40.8343 36.609Z" fill="#6C63FF"/>
<path d="M376.464 210.14C372.448 208.5 371.536 202.527 374.897 199.88C378.258 197.234 384.306 199.163 385.285 203.194L381.539 177.857C380.677 172.032 379.988 165.52 383.711 160.808C387.198 156.396 394.009 154.982 399.477 156.881C404.945 158.781 408.986 163.519 410.7 168.783C412.415 174.047 412.01 179.767 410.513 185.09C409.016 190.412 406.473 195.412 403.9 200.354C401.265 205.418 398.068 210.905 392.433 212.769C387.051 214.55 376.464 210.14 376.464 210.14Z" fill="#F2F2F2"/>
<path d="M394.062 156.401C396.524 163.665 397.696 171.265 397.53 178.891C397.376 186.484 395.933 194.004 393.258 201.164C391.735 205.227 389.806 209.142 387.496 212.858C387.396 213.032 387.372 213.237 387.429 213.429C387.485 213.62 387.619 213.783 387.8 213.883C387.981 213.984 388.197 214.013 388.401 213.966C388.606 213.919 388.782 213.799 388.895 213.631C393.042 206.93 395.988 199.628 397.616 192.018C399.267 184.373 399.597 176.525 398.594 168.78C398.03 164.439 397.036 160.158 395.624 155.994C395.306 155.059 393.741 155.459 394.062 156.401Z" fill="white"/>
<path d="M374.083 200.813L386.906 213.554C387.626 214.27 388.77 213.185 388.051 212.471L375.228 199.73C374.508 199.014 373.364 200.098 374.083 200.813Z" fill="white"/>
<path d="M363.19 152.705C362.733 152.706 362.291 152.551 361.946 152.268C354.028 147.393 346.98 141.359 341.066 134.391C340.704 134.067 340.491 133.621 340.473 133.15C340.454 132.679 340.631 132.219 340.965 131.87L344.852 127.811L345.653 128.497L341.766 132.555C341.618 132.709 341.541 132.913 341.552 133.12C341.563 133.328 341.661 133.523 341.824 133.663L341.881 133.72C347.736 140.625 354.718 146.603 362.564 151.43L362.635 151.481C362.798 151.62 363.013 151.693 363.233 151.683C363.452 151.672 363.659 151.58 363.806 151.426L371.39 143.507C371.531 143.36 371.608 143.167 371.605 142.969C371.602 142.77 371.519 142.58 371.373 142.437C369.616 141.531 367.901 140.544 366.275 139.502L366.881 138.657C368.498 139.693 370.204 140.674 371.953 141.572L372.057 141.642C372.243 141.802 372.394 141.994 372.501 142.208C372.609 142.422 372.67 142.655 372.683 142.891C372.695 143.128 372.658 143.365 372.574 143.588C372.489 143.812 372.359 144.017 372.191 144.193L364.607 152.112C364.439 152.288 364.236 152.431 364.009 152.532C363.782 152.634 363.537 152.692 363.286 152.703C363.254 152.704 363.222 152.705 363.19 152.705Z" fill="#3F3D56"/>
<path d="M354.829 139.374C357.211 141.411 359.657 142.53 360.295 141.866C360.378 141.753 360.43 141.623 360.447 141.487C360.464 141.351 360.445 141.212 360.392 141.085C360.133 140.333 359.72 139.637 359.176 139.037C357.059 137.612 355.002 136.075 353.004 134.426C352.377 134.232 351.896 134.237 351.664 134.482C351.631 134.517 351.604 134.557 351.583 134.6C351.184 135.371 352.571 137.439 354.829 139.374Z" fill="#6C63FF"/>
<path d="M340.474 122.957C340.494 123.422 340.708 123.861 341.068 124.177C344.268 127.916 347.784 131.401 351.583 134.6C354.363 136.944 357.306 139.111 360.392 141.085C360.905 141.417 361.423 141.738 361.947 142.055C362.291 142.339 362.732 142.496 363.189 142.494C363.222 142.494 363.254 142.489 363.286 142.489C363.537 142.478 363.784 142.42 364.011 142.318C364.238 142.217 364.441 142.073 364.609 141.897L372.192 133.982C372.532 133.626 372.709 133.157 372.683 132.679C372.658 132.2 372.433 131.75 372.057 131.429L371.954 131.357C363.676 127.129 356.6 121.073 351.329 113.704L351.248 113.612C350.872 113.291 350.377 113.124 349.87 113.148C349.364 113.172 348.888 113.385 348.548 113.74L340.965 121.655C340.797 121.831 340.667 122.036 340.582 122.26C340.498 122.483 340.461 122.72 340.474 122.957ZM341.554 122.906C341.548 122.804 341.564 122.702 341.6 122.605C341.636 122.509 341.692 122.42 341.765 122.344L349.347 114.424C349.421 114.347 349.51 114.285 349.609 114.241C349.708 114.198 349.816 114.173 349.925 114.169C350.124 114.158 350.32 114.216 350.476 114.332C355.825 121.793 362.991 127.929 371.371 132.225C371.517 132.367 371.6 132.557 371.604 132.755C371.608 132.953 371.533 133.145 371.393 133.292L363.805 141.212C363.733 141.289 363.645 141.352 363.546 141.396C363.448 141.44 363.341 141.464 363.232 141.468C363.013 141.478 362.798 141.406 362.633 141.269L362.563 141.217C361.418 140.523 360.289 139.796 359.176 139.037C357.059 137.612 355.002 136.075 353.004 134.426C348.968 131.098 345.246 127.445 341.878 123.509L341.824 123.452C341.662 123.311 341.565 123.114 341.554 122.906V122.906Z" fill="#3F3D56"/>
<path d="M360.294 131.655C360.929 130.992 359.511 128.801 357.129 126.761C354.746 124.721 352.3 123.605 351.665 124.267C351.031 124.93 352.448 127.121 354.831 129.161C357.213 131.201 359.659 132.318 360.294 131.655Z" fill="#6C63FF"/>
<path d="M312.646 207.6L306.026 207.599L302.875 183.452L312.647 183.453L312.646 207.6Z" fill="#FFB8B8"/>
<path d="M314.335 213.668L292.986 213.667V213.412C292.986 212.38 293.201 211.358 293.619 210.405C294.036 209.452 294.648 208.586 295.42 207.856C296.192 207.127 297.108 206.548 298.116 206.153C299.124 205.758 300.205 205.555 301.296 205.555H301.296L314.336 205.556L314.335 213.668Z" fill="#2F2E41"/>
<path d="M332.089 207.6L325.468 207.599L322.318 183.452L332.09 183.453L332.089 207.6Z" fill="#FFB8B8"/>
<path d="M333.778 213.668L312.428 213.667V213.412C312.428 212.38 312.643 211.358 313.061 210.405C313.479 209.452 314.091 208.586 314.862 207.856C315.634 207.127 316.55 206.548 317.558 206.153C318.566 205.758 319.647 205.555 320.738 205.555H320.739L333.778 205.556L333.778 213.668Z" fill="#2F2E41"/>
<path d="M336.533 110.013L334.952 198.707C334.947 198.988 334.88 199.265 334.757 199.521C334.634 199.776 334.456 200.005 334.235 200.193C334.014 200.38 333.754 200.523 333.472 200.611C333.19 200.7 332.892 200.732 332.596 200.707L324.848 200.041C324.34 199.997 323.864 199.785 323.506 199.442C323.148 199.098 322.929 198.646 322.89 198.165L318.354 142.84C318.343 142.71 318.28 142.589 318.178 142.501C318.076 142.413 317.943 142.366 317.805 142.369C317.667 142.371 317.535 142.423 317.437 142.515C317.339 142.606 317.281 142.73 317.276 142.86L315.009 199.452C314.987 199.98 314.751 200.479 314.348 200.846C313.946 201.212 313.409 201.417 312.85 201.417H304.541C303.991 201.417 303.461 201.218 303.06 200.862C302.66 200.506 302.418 200.018 302.384 199.499L296.568 109.502L331.132 101.332L336.533 110.013Z" fill="#2F2E41"/>
<path d="M311.462 26.7297C318.788 26.7297 324.726 21.1145 324.726 14.1879C324.726 7.26125 318.788 1.6461 311.462 1.6461C304.136 1.6461 298.197 7.26125 298.197 14.1879C298.197 21.1145 304.136 26.7297 311.462 26.7297Z" fill="#FFB8B8"/>
<path d="M295.384 112.651C295.154 112.441 294.971 112.19 294.844 111.913C294.718 111.636 294.651 111.337 294.647 111.035L293.752 50.554C293.699 47.4774 294.677 44.4638 296.548 41.9461C298.419 39.4284 301.086 37.5363 304.166 36.5414C305.409 31.2106 312.023 30.5429 315.878 30.6227C316.841 30.6423 317.784 30.881 318.628 31.3186C319.472 31.7562 320.192 32.3798 320.727 33.1365L323.491 37.0565L329.583 40.433C332.402 41.9889 334.626 44.3514 335.934 47.1796C337.241 50.0078 337.565 53.1556 336.858 56.169L335.92 60.2027C332.617 74.4798 332.931 89.293 336.837 103.433L338.724 110.237C338.823 110.592 338.83 110.963 338.745 111.321C338.661 111.678 338.487 112.011 338.239 112.293C337.991 112.574 337.675 112.795 337.318 112.937C336.961 113.08 336.573 113.139 336.187 113.111L333.995 112.951C333.426 112.911 332.89 112.682 332.482 112.305C332.074 111.927 331.819 111.426 331.763 110.889L331.4 107.46C331.394 107.397 331.363 107.338 331.313 107.296C331.263 107.253 331.199 107.23 331.132 107.23C331.065 107.23 331 107.253 330.951 107.296C330.901 107.338 330.87 107.397 330.863 107.46L330.512 110.78C330.453 111.341 330.177 111.862 329.738 112.244C329.299 112.625 328.727 112.841 328.131 112.849L297.115 113.301C297.102 113.301 297.089 113.301 297.076 113.301C296.444 113.302 295.836 113.069 295.384 112.651Z" fill="#3F3D56"/>
<path d="M312.5 21.4172C312.554 23.1901 313.856 24.2158 315.454 25.1445C317.052 26.0731 318.921 26.4758 320.751 26.8642C320.997 26.9876 321.272 27.0491 321.55 27.0426C321.829 27.0362 322.1 26.962 322.34 26.8273C322.579 26.6926 322.777 26.5019 322.916 26.2736C323.054 26.0453 323.128 25.7871 323.13 25.524L324.809 19.4866C325.403 17.558 325.835 15.5882 326.101 13.5954C326.506 9.76092 325.544 5.63603 322.714 2.86364C319.883 0.0912475 314.974 -0.8936 311.582 1.24248C307.557 -3.61867 289.157 7.12144 293.696 10.5018C294.503 11.1031 295.737 10.3422 296.762 10.2684C297.787 10.1947 298.936 10.3651 299.587 11.1172C300.438 12.0998 300.067 13.5634 300.418 14.7891C300.563 15.2204 300.796 15.6203 301.106 15.9657C301.415 16.3111 301.793 16.5952 302.219 16.8016C302.645 17.008 303.11 17.1327 303.587 17.1684C304.064 17.2041 304.544 17.1501 304.999 17.0096C305.847 16.6148 306.644 16.1302 307.376 15.5652C308.162 15.0701 309.155 14.7043 310.04 15.0165C311.207 15.4281 311.621 16.7784 311.726 17.9514C311.904 19.1214 312.162 20.2791 312.5 21.4172Z" fill="#2F2E41"/>
<path opacity="0.2" d="M309.402 55.0303L307.241 80.0516L295.9 106.094L312.642 80.5622L309.402 55.0303Z" fill="black"/>
<path d="M293.248 115.792C293.867 115.322 294.37 114.73 294.72 114.056C295.071 113.383 295.261 112.645 295.278 111.894C295.294 111.144 295.136 110.399 294.815 109.712C294.494 109.026 294.018 108.414 293.42 107.92L300.645 90.9998L290.814 92.8767L285.46 108.657C284.65 109.662 284.257 110.913 284.357 112.173C284.457 113.434 285.042 114.616 286.002 115.495C286.962 116.375 288.23 116.891 289.565 116.945C290.901 117 292.211 116.59 293.248 115.792V115.792Z" fill="#FFB8B8"/>
<path d="M292.722 108.33L287.157 106.434C286.584 106.235 286.11 105.841 285.829 105.329C285.547 104.817 285.479 104.224 285.637 103.666L294.817 71.8945L296.216 43.1801C296.258 42.3134 296.482 41.4633 296.875 40.6792C297.268 39.895 297.822 39.1926 298.504 38.6126C299.187 38.0326 299.984 37.5867 300.851 37.3008C301.717 37.0149 302.635 36.8947 303.551 36.9472C304.467 36.9997 305.363 37.2239 306.186 37.6067C307.01 37.9894 307.744 38.5232 308.348 39.1768C308.951 39.8305 309.411 40.5911 309.701 41.4143C309.991 42.2376 310.104 43.1071 310.035 43.9723L307.536 75.4139L295.839 106.93C295.662 107.406 295.324 107.814 294.877 108.09C294.431 108.367 293.9 108.497 293.368 108.461C293.147 108.445 292.93 108.401 292.722 108.33Z" fill="#3F3D56"/>
<path d="M350.069 117.452C350.449 116.793 350.671 116.063 350.72 115.313C350.769 114.564 350.644 113.814 350.353 113.115C350.063 112.417 349.614 111.787 349.038 111.27C348.462 110.754 347.773 110.363 347.02 110.125L346.792 91.8787L338.486 97.1919L339.975 113.704C339.636 114.927 339.784 116.225 340.39 117.351C340.996 118.478 342.017 119.355 343.262 119.817C344.506 120.279 345.886 120.294 347.141 119.858C348.395 119.422 349.437 118.566 350.069 117.452L350.069 117.452Z" fill="#FFB8B8"/>
<path d="M346.543 110.757L340.635 111.034C340.025 111.06 339.427 110.869 338.959 110.499C338.49 110.129 338.186 109.606 338.104 109.034L333.629 76.3716L323.22 49.3642C322.905 48.549 322.766 47.6829 322.809 46.8163C322.852 45.9496 323.076 45.0997 323.47 44.3159C323.863 43.5321 324.418 42.8301 325.101 42.2507C325.784 41.6713 326.582 41.226 327.448 40.9408C328.315 40.6556 329.233 40.5361 330.149 40.5893C331.065 40.6425 331.96 40.8674 332.783 41.2507C333.606 41.6341 334.341 42.1684 334.944 42.8225C335.546 43.4766 336.006 44.2375 336.295 45.061L346.8 74.9858L348.849 108.329C348.879 108.833 348.733 109.333 348.434 109.751C348.135 110.169 347.698 110.482 347.192 110.643C346.982 110.709 346.764 110.747 346.543 110.757Z" fill="#3F3D56"/>
<path d="M417.46 213.927H211.695C211.552 213.927 211.414 213.873 211.313 213.777C211.212 213.682 211.155 213.552 211.155 213.416C211.155 213.281 211.212 213.151 211.313 213.055C211.414 212.96 211.552 212.906 211.695 212.906H417.46C417.603 212.906 417.741 212.96 417.842 213.055C417.943 213.151 418 213.281 418 213.416C418 213.552 417.943 213.682 417.842 213.777C417.741 213.873 417.603 213.927 417.46 213.927Z" fill="#3F3D56"/>
<path d="M174.559 103.681C171.458 103.681 168.991 102.809 167.227 101.089C163.24 97.2001 163.49 89.7048 163.691 83.6821C163.749 81.9301 163.804 80.275 163.749 78.8887L163.748 78.8678C163.762 76.1592 164.906 73.5652 166.931 71.6494C168.956 69.7336 171.699 68.6508 174.564 68.6361H200.28C203.377 68.6361 205.842 69.507 207.604 71.2252C211.591 75.1105 211.344 82.604 211.146 88.6252C211.088 90.381 211.033 92.0396 211.09 93.4284C211.08 96.141 209.937 98.7401 207.911 100.66C205.884 102.58 203.138 103.666 200.269 103.681H174.559ZM164.828 78.8605C164.885 80.28 164.829 81.9483 164.77 83.7143C164.576 89.5442 164.334 96.7999 168.002 100.378C169.577 101.913 171.722 102.66 174.559 102.66H200.267C202.847 102.647 205.318 101.672 207.142 99.9471C208.966 98.222 209.997 95.886 210.01 93.4466C209.952 92.0433 210.007 90.3675 210.066 88.5933C210.258 82.7648 210.497 75.5109 206.829 71.9362C205.256 70.4028 203.113 69.6573 200.28 69.6573H174.566C171.988 69.6709 169.52 70.6448 167.697 72.3677C165.875 74.0906 164.844 76.4236 164.828 78.8605Z" fill="#3F3D56"/>
<path d="M35.153 37.5487C30.6439 37.5229 26.2329 36.3013 22.4215 34.0229C16.8379 30.7424 12.6219 25.4884 11.4189 20.312L11.2983 19.7931L12.8073 19.5378C24.685 17.0592 38.1195 25.0466 40.9976 36.3053L41.1237 36.799L40.6023 36.9209C38.8194 37.3381 36.9896 37.5489 35.153 37.5487ZM12.6045 20.6097C13.9006 25.3583 17.834 30.1251 22.9916 33.1555C27.9784 36.173 34.0215 37.2118 39.8125 36.047C36.8013 25.5578 24.1924 18.1972 13.0299 20.5374L12.6045 20.6097Z" fill="#3F3D56"/>
<path d="M20.1701 95.5786C16.6367 95.5786 13.766 94.0836 12.0807 91.3564C11.1361 89.7698 10.6395 87.9798 10.6389 86.1591C10.6383 84.3383 11.1337 82.5481 12.0772 80.9609C13.7895 78.187 16.7287 76.6823 20.3585 76.7349H54.6223C58.2398 76.6913 61.1811 78.1893 62.8945 80.9664C63.8381 82.5532 64.3338 84.343 64.3336 86.1635C64.3334 87.984 63.8375 89.7737 62.8935 91.3604C61.1809 94.131 58.2404 95.6108 54.6142 95.5774H20.3497C20.2897 95.5781 20.2298 95.5785 20.1701 95.5786ZM20.1902 77.755C17.039 77.755 14.4936 79.0724 13.0101 81.4758C12.16 82.9057 11.7138 84.5185 11.7144 86.1588C11.7149 87.7991 12.1623 89.4116 13.0133 90.841C14.5219 93.2825 17.1194 94.604 20.3416 94.5561H54.6223C57.8479 94.6047 60.4535 93.2838 61.9609 90.845C62.8113 89.4156 63.2581 87.8032 63.2582 86.1631C63.2583 84.523 62.8117 82.9106 61.9615 81.481C60.4531 79.036 57.8469 77.7195 54.63 77.7562H20.3471C20.2948 77.7555 20.2422 77.755 20.1902 77.755H20.1902Z" fill="#3F3D56"/>
<path d="M183.352 80.7791H172.551C171.835 80.7791 171.148 80.5102 170.642 80.0313C170.135 79.5525 169.851 78.9031 169.851 78.226C169.851 77.5488 170.135 76.8994 170.642 76.4206C171.148 75.9418 171.835 75.6728 172.551 75.6728H183.352C184.069 75.6728 184.755 75.9418 185.262 76.4206C185.768 76.8994 186.053 77.5488 186.053 78.226C186.053 78.9031 185.768 79.5525 185.262 80.0313C184.755 80.5102 184.069 80.7791 183.352 80.7791Z" fill="#6C63FF"/>
<path d="M183.352 88.9493H172.551C171.835 88.9493 171.148 88.6803 170.642 88.2015C170.135 87.7227 169.851 87.0733 169.851 86.3962C169.851 85.719 170.135 85.0696 170.642 84.5908C171.148 84.112 171.835 83.843 172.551 83.843H183.352C184.069 83.843 184.755 84.112 185.262 84.5908C185.768 85.0696 186.053 85.719 186.053 86.3962C186.053 87.0733 185.768 87.7227 185.262 88.2015C184.755 88.6803 184.069 88.9493 183.352 88.9493Z" fill="#6C63FF"/>
<path d="M183.352 97.1195H172.551C171.835 97.1195 171.148 96.8505 170.642 96.3717C170.135 95.8929 169.851 95.2435 169.851 94.5663C169.851 93.8892 170.135 93.2398 170.642 92.761C171.148 92.2822 171.835 92.0132 172.551 92.0132H183.352C184.069 92.0132 184.755 92.2822 185.262 92.761C185.768 93.2398 186.053 93.8892 186.053 94.5663C186.053 95.2435 185.768 95.8929 185.262 96.3717C184.755 96.8505 184.069 97.1195 183.352 97.1195Z" fill="#6C63FF"/>
<path d="M202.255 80.7791H191.454C190.737 80.7791 190.05 80.5102 189.544 80.0313C189.038 79.5525 188.753 78.9031 188.753 78.226C188.753 77.5488 189.038 76.8994 189.544 76.4206C190.05 75.9418 190.737 75.6728 191.454 75.6728H202.255C202.971 75.6728 203.658 75.9418 204.164 76.4206C204.671 76.8994 204.955 77.5488 204.955 78.226C204.955 78.9031 204.671 79.5525 204.164 80.0313C203.658 80.5102 202.971 80.7791 202.255 80.7791Z" fill="#6C63FF"/>
<path d="M202.255 88.9493H191.454C190.737 88.9493 190.05 88.6803 189.544 88.2015C189.038 87.7227 188.753 87.0733 188.753 86.3962C188.753 85.719 189.038 85.0696 189.544 84.5908C190.05 84.112 190.737 83.843 191.454 83.843H202.255C202.971 83.843 203.658 84.112 204.164 84.5908C204.671 85.0696 204.955 85.719 204.955 86.3962C204.955 87.0733 204.671 87.7227 204.164 88.2015C203.658 88.6803 202.971 88.9493 202.255 88.9493Z" fill="#6C63FF"/>
<path d="M202.255 97.1195H191.454C190.737 97.1195 190.05 96.8505 189.544 96.3717C189.038 95.8929 188.753 95.2435 188.753 94.5663C188.753 93.8892 189.038 93.2398 189.544 92.761C190.05 92.2822 190.737 92.0132 191.454 92.0132H202.255C202.971 92.0132 203.658 92.2822 204.164 92.761C204.671 93.2398 204.955 93.8892 204.955 94.5663C204.955 95.2435 204.671 95.8929 204.164 96.3717C203.658 96.8505 202.971 97.1195 202.255 97.1195Z" fill="#6C63FF"/>
<path d="M226.828 44.4937H0.648193V45.515H226.828V44.4937Z" fill="#3F3D56"/>
<path d="M209.006 130.056H17.8222C13.0971 130.051 8.56704 128.274 5.22589 125.115C1.88474 121.955 0.00533747 117.672 0 113.205V25.375C0.00533747 20.9074 1.88474 16.6242 5.22589 13.4651C8.56704 10.306 13.0971 8.52903 17.8222 8.52399H209.006C213.731 8.52903 218.261 10.306 221.602 13.4651C224.943 16.6242 226.822 20.9074 226.828 25.375V113.205C226.822 117.672 224.943 121.955 221.602 125.115C218.261 128.274 213.731 130.051 209.006 130.056ZM17.8222 9.54526C13.3835 9.55003 9.12798 11.2193 5.98933 14.187C2.85068 17.1546 1.08518 21.1782 1.08013 25.375V113.205C1.08518 117.401 2.85069 121.425 5.98934 124.393C9.12799 127.36 13.3835 129.03 17.8222 129.034H209.006C213.444 129.03 217.7 127.36 220.838 124.393C223.977 121.425 225.743 117.401 225.748 113.205V25.375C225.743 21.1782 223.977 17.1546 220.838 14.187C217.7 11.2193 213.444 9.55002 209.006 9.54526H17.8222Z" fill="#3F3D56"/>
</g>
<defs>
<clipPath id="clip0_29_77">
<rect width="418" height="214" fill="white"/>
</clipPath>
</defs>
</svg>
